<svg aria-hidden="true" style="position: absolute; width: 0; height: 0; overflow: hidden;" version="1.1" xmlns="http://www.w3.org/2000/svg" xmlns:xlink="http://www.w3.org/1999/xlink">
  <defs>
    <symbol id="icon_symbol_arrow-left" viewBox="0 0 32 32">
      <path d="M2.811 16.302c-0.193-0.195-0.193-0.512 0-0.707l3.143-3.182c0.193-0.195 0.506-0.195 0.698 0s0.193 0.512 0 0.707l-2.793 2.828 2.793 2.828c0.193 0.195 0.193 0.512 0 0.707s-0.505 0.195-0.698 0l-3.143-3.182zM28.84 16.449h-25.679v-1h25.679v1z"></path>
    </symbol>
    <symbol id="icon_symbol_arrow-right" viewBox="0 0 32 32">
      <path d="M29.189 16.302c0.193-0.195 0.193-0.512 0-0.707l-3.143-3.182c-0.193-0.195-0.506-0.195-0.698 0s-0.193 0.512 0 0.707l2.793 2.828-2.793 2.828c-0.193 0.195-0.193 0.512 0 0.707s0.505 0.195 0.698 0l3.143-3.182zM3.16 16.449h25.679v-1h-25.679v1z"></path>
    </symbol>
    <symbol id="icon_symbol_chevron-left" viewBox="0 0 32 32">
      <path d="M21.775 3.825c0.833 0.833 0.833 2.184 0 3.017l-9.158 9.158 9.158 9.158c0.833 0.833 0.833 2.184 0 3.017s-2.184 0.833-3.017 0l-10.667-10.667c-0.833-0.833-0.833-2.184 0-3.017l10.667-10.667c0.833-0.833 2.184-0.833 3.017 0z"></path>
    </symbol>
    <symbol id="icon_symbol_chevron-right" viewBox="0 0 32 32">
      <path d="M10.225 28.175c-0.833-0.833-0.833-2.184 0-3.017l9.158-9.158-9.158-9.158c-0.833-0.833-0.833-2.184 0-3.017s2.184-0.833 3.017 0l10.667 10.667c0.833 0.833 0.833 2.184 0 3.017l-10.667 10.667c-0.833 0.833-2.184 0.833-3.017 0z"></path>
    </symbol>
    <symbol id="icon_symbol_menu" viewBox="0 0 32 32">
      <path d="M26.133 7.2h-20.8v-1.6h20.8v1.6zM26.133 16.533h-20.8v-1.6h20.8v1.6zM26.133 25.867h-20.8v-1.6h20.8v1.6z"></path>
    </symbol>
    <symbol id="icon_symbol_phone" viewBox="0 0 32 32">
      <path d="M7.093 6.867c0 0 0.245-0.389 0.652-0.467 0.489 0 0.734 0.389 0.734 0.389l2.936 4.284c0 0 0.326 0.312-0.163 1.012-0.571 0.623-1.142 1.324-1.142 1.324s-0.326 0.234 0.082 0.779c0.082 0.156 7.503 7.243 7.667 7.321 0.653 0.389 0.897 0.156 0.897 0.156s0.652-0.623 1.386-1.090c0.652-0.545 1.060-0.234 1.060-0.234l4.486 2.882c0 0 0.326 0.156 0.326 0.623s-0.489 0.623-0.489 0.623-2.039 1.635-2.936 2.259c-0.979 0.701-2.447 0.779-5.546-0.857-1.631-0.857-10.521-9.346-11.418-10.826-1.713-2.96-1.55-4.439-0.897-5.296 0.652-0.935 2.365-2.882 2.365-2.882zM7.827 7.335l-0.082 0.078c-0.816 0.935-1.631 1.791-2.365 2.804-0.897 1.090 0.408 3.427 0.979 4.439 0.816 1.402 9.542 9.735 11.011 10.514 1.060 0.545 3.507 1.791 4.73 0.934 0.979-0.701 1.957-1.48 2.936-2.258h0.082v-0.078l-4.323-2.726c-0.082 0.078-0.163 0.078-0.163 0.156-0.489 0.312-0.897 0.623-1.305 1.013-0.489 0.467-1.305 0.312-1.876 0-0.408-0.234-7.748-7.243-7.993-7.632-0.326-0.467-0.489-1.324 0.082-1.791 0.326-0.389 0.734-0.779 1.060-1.246 0 0 0.082-0.078 0.082-0.156l-2.855-4.050z"></path>
      <path d="M7.733 6.267h0.013c0.282 0 0.494 0.113 0.634 0.224 0.069 0.055 0.122 0.111 0.157 0.153 0.018 0.021 0.031 0.039 0.041 0.052 0.005 0.006 0.008 0.012 0.011 0.016l0.003 0.005 2.929 4.274c0.004 0.004 0.008 0.009 0.013 0.015 0.012 0.015 0.027 0.036 0.042 0.062 0.031 0.054 0.063 0.131 0.075 0.234 0.025 0.207-0.030 0.492-0.288 0.862l-0.005 0.007-0.006 0.007c-0.284 0.31-0.568 0.639-0.781 0.892-0.107 0.126-0.196 0.233-0.258 0.308-0.031 0.038-0.056 0.067-0.072 0.087l-0.019 0.023-0.006 0.008-0.011 0.014-0.013 0.009c-0.001 0-0.001 0.001-0.003 0.002-0.004 0.003-0.010 0.010-0.017 0.019-0.014 0.018-0.032 0.047-0.042 0.088-0.019 0.077-0.017 0.231 0.171 0.483l0.006 0.009c0.003 0.004 0.008 0.009 0.014 0.016 0.015 0.016 0.037 0.040 0.066 0.069 0.058 0.060 0.141 0.143 0.247 0.247 0.211 0.208 0.507 0.498 0.862 0.842 0.71 0.687 1.65 1.59 2.593 2.49s1.888 1.798 2.608 2.476c0.36 0.339 0.663 0.622 0.881 0.823 0.109 0.101 0.197 0.18 0.259 0.236 0.031 0.028 0.056 0.049 0.073 0.063 0.009 0.007 0.015 0.012 0.018 0.015 0 0-0-0 0 0l0.001 0c0.311 0.185 0.508 0.213 0.616 0.205 0.054-0.004 0.089-0.016 0.107-0.025 0.009-0.004 0.015-0.008 0.017-0.010l0.005-0.004 0.023-0.021c0.020-0.018 0.049-0.045 0.085-0.078 0.074-0.067 0.179-0.16 0.308-0.268 0.256-0.215 0.604-0.489 0.975-0.726 0.345-0.286 0.64-0.358 0.861-0.346 0.11 0.006 0.196 0.032 0.257 0.058 0.030 0.013 0.054 0.026 0.071 0.036 0.009 0.005 0.015 0.010 0.021 0.013l0.004 0.003 4.478 2.876c0.004 0.002 0.009 0.005 0.014 0.008 0.012 0.007 0.029 0.017 0.048 0.031 0.038 0.027 0.088 0.069 0.137 0.127 0.1 0.119 0.194 0.305 0.194 0.572 0 0.287-0.152 0.478-0.295 0.591-0.071 0.056-0.141 0.096-0.194 0.121-0.026 0.013-0.049 0.022-0.065 0.028-0.001 0-0.002 0.001-0.003 0.001l-0.072 0.058c-0.058 0.046-0.141 0.112-0.243 0.194-0.205 0.163-0.489 0.387-0.8 0.631-0.621 0.486-1.358 1.053-1.81 1.367-1.046 0.748-2.58 0.791-5.685-0.848-0.216-0.114-0.542-0.347-0.943-0.664-0.403-0.319-0.89-0.728-1.429-1.198-1.079-0.941-2.372-2.13-3.643-3.338s-2.518-2.436-3.505-3.455c-0.493-0.509-0.922-0.967-1.256-1.345-0.332-0.375-0.576-0.678-0.695-0.874l-0.001-0.002c-1.718-2.968-1.592-4.516-0.889-5.441 0.331-0.473 0.925-1.197 1.433-1.799 0.255-0.302 0.49-0.575 0.661-0.773 0.086-0.099 0.155-0.179 0.203-0.234l0.056-0.064 0.013-0.015c0.002-0.003 0.005-0.007 0.008-0.012 0.009-0.013 0.021-0.030 0.038-0.051 0.032-0.042 0.080-0.098 0.142-0.157 0.122-0.117 0.308-0.252 0.546-0.297l0.012-0.002zM7.093 6.867l0.1 0.088-0.019 0.022-0.055 0.063c-0.048 0.055-0.117 0.135-0.203 0.233-0.17 0.197-0.405 0.469-0.659 0.77-0.51 0.604-1.098 1.32-1.42 1.782l-0.003 0.005c-0.601 0.789-0.8 2.2 0.906 5.147 0.106 0.174 0.335 0.459 0.667 0.835 0.33 0.373 0.756 0.828 1.248 1.336 0.984 1.016 2.228 2.241 3.497 3.447s2.559 2.393 3.634 3.33c0.538 0.469 1.020 0.875 1.419 1.19 0.401 0.317 0.71 0.536 0.901 0.637 3.092 1.632 4.495 1.519 5.406 0.866l0.002-0.001c0.445-0.309 1.176-0.871 1.798-1.358 0.311-0.243 0.593-0.467 0.798-0.63 0.102-0.081 0.186-0.148 0.243-0.194l0.108-0.087 0.024-0.008 0.002-0.001c0.002-0.001 0.006-0.002 0.012-0.004 0.011-0.004 0.027-0.011 0.046-0.020 0.039-0.019 0.091-0.048 0.143-0.089 0.102-0.081 0.194-0.202 0.194-0.382 0-0.2-0.069-0.326-0.132-0.401-0.032-0.039-0.064-0.065-0.088-0.082-0.011-0.008-0.021-0.014-0.026-0.017-0.003-0.002-0.005-0.003-0.005-0.003s-0-0 0 0l-0.007-0.003-4.501-2.891c-0.001-0.001-0.004-0.003-0.008-0.005-0.008-0.005-0.021-0.012-0.039-0.020-0.036-0.015-0.092-0.033-0.166-0.037-0.145-0.008-0.378 0.036-0.682 0.29l-0.007 0.006-0.007 0.005c-0.36 0.229-0.702 0.498-0.954 0.71-0.126 0.106-0.229 0.197-0.301 0.262-0.036 0.032-0.064 0.058-0.082 0.076l-0.028 0.026-0.039-0.040c0.039 0.040 0.039 0.041 0.038 0.041l-0.001 0.001-0.001 0.001-0.002 0.002-0.006 0.005c-0.004 0.004-0.010 0.008-0.017 0.013-0.014 0.010-0.032 0.021-0.056 0.033-0.048 0.023-0.115 0.044-0.204 0.050-0.177 0.012-0.427-0.038-0.768-0.241-0.012-0.007-0.023-0.015-0.027-0.018-0.008-0.006-0.018-0.014-0.028-0.023-0.020-0.017-0.047-0.040-0.079-0.069-0.064-0.057-0.153-0.138-0.263-0.239-0.219-0.202-0.523-0.486-0.883-0.825-0.72-0.678-1.666-1.576-2.609-2.477s-1.884-1.804-2.594-2.492c-0.355-0.344-0.653-0.634-0.864-0.844-0.106-0.105-0.19-0.189-0.25-0.251-0.030-0.031-0.054-0.056-0.072-0.076-0.009-0.010-0.017-0.019-0.024-0.027l-0-0c-0.003-0.004-0.010-0.012-0.016-0.022-0.217-0.292-0.256-0.525-0.213-0.701 0.021-0.085 0.059-0.149 0.093-0.192 0.017-0.021 0.033-0.038 0.046-0.049 0.003-0.003 0.006-0.005 0.009-0.008l0.017-0.021c0.017-0.021 0.041-0.050 0.073-0.088 0.063-0.076 0.152-0.183 0.26-0.31 0.213-0.252 0.497-0.582 0.782-0.893 0.227-0.327 0.252-0.546 0.237-0.669-0.008-0.063-0.027-0.107-0.042-0.134-0.008-0.013-0.014-0.022-0.018-0.027-0.001-0.001-0.002-0.002-0.002-0.003s-0-0-0.001-0.001l-0.008-0.008-2.948-4.301c-0.001-0.002-0.003-0.005-0.006-0.009-0.006-0.008-0.015-0.021-0.028-0.036-0.026-0.031-0.066-0.073-0.118-0.115-0.103-0.082-0.254-0.162-0.455-0.166-0.164 0.035-0.3 0.131-0.4 0.226-0.050 0.048-0.089 0.094-0.116 0.128-0.013 0.017-0.023 0.030-0.029 0.039-0.003 0.005-0.005 0.008-0.007 0.010l-0.001 0.002zM7.093 6.867l0.1 0.088 0.007-0.008 0.006-0.009zM7.847 7.131l2.968 4.211v0.042c0 0.081-0.040 0.148-0.065 0.183-0.014 0.020-0.028 0.037-0.038 0.048-0.003 0.004-0.006 0.007-0.009 0.010-0.166 0.237-0.352 0.453-0.534 0.656-0.057 0.064-0.114 0.126-0.169 0.186-0.126 0.138-0.246 0.27-0.358 0.404l-0.008 0.010-0.010 0.008c-0.245 0.201-0.338 0.487-0.328 0.788 0.009 0.304 0.123 0.61 0.272 0.823l0.004 0.005c0-0 0 0 0 0.001l0.002 0.002c0.002 0.002 0.004 0.005 0.007 0.009 0.006 0.007 0.013 0.017 0.023 0.028 0.019 0.023 0.046 0.052 0.079 0.088 0.066 0.071 0.157 0.166 0.269 0.28 0.224 0.228 0.532 0.534 0.896 0.892 0.728 0.715 1.681 1.634 2.639 2.549s1.921 1.825 2.67 2.52c0.374 0.348 0.695 0.642 0.934 0.856 0.12 0.107 0.218 0.194 0.293 0.257 0.077 0.065 0.12 0.097 0.134 0.106 0.272 0.148 0.599 0.257 0.911 0.275s0.598-0.055 0.808-0.255c0.402-0.384 0.804-0.693 1.28-0.999 0.006-0.015 0.014-0.029 0.024-0.042 0.024-0.033 0.054-0.053 0.073-0.065 0.014-0.009 0.026-0.016 0.035-0.022 0.022-0.013 0.037-0.022 0.056-0.040l0.075-0.072 4.473 2.821v0.285h-0.168c-0.966 0.769-1.935 1.539-2.905 2.234l-0.001 0.001c-0.336 0.235-0.749 0.321-1.184 0.316s-0.902-0.101-1.357-0.239c-0.91-0.277-1.797-0.73-2.326-1.002l-0.002-0.001c-0.196-0.104-0.502-0.327-0.882-0.632-0.383-0.307-0.849-0.703-1.369-1.16-1.039-0.914-2.294-2.074-3.529-3.253s-2.449-2.378-3.406-3.37c-0.479-0.496-0.894-0.941-1.215-1.307-0.319-0.363-0.553-0.655-0.662-0.843l-0.001-0.002c-0.285-0.505-0.76-1.353-1.050-2.213-0.145-0.43-0.246-0.871-0.252-1.278s0.085-0.79 0.334-1.095c0.562-0.775 1.173-1.461 1.79-2.153 0.193-0.217 0.387-0.435 0.581-0.657l0.004-0.005 0.198-0.189zM24.897 23.786l-4.095-2.582c-0.014 0.009-0.026 0.016-0.035 0.021-0 0-0.001 0.001-0.001 0.001v0.045l-0.062 0.039c-0.483 0.308-0.884 0.614-1.284 0.996-0.279 0.267-0.646 0.35-1.007 0.329s-0.726-0.145-1.025-0.308l-0.002-0.001c-0.038-0.022-0.101-0.072-0.174-0.134-0.078-0.065-0.179-0.154-0.299-0.262-0.241-0.216-0.563-0.511-0.938-0.859-0.75-0.697-1.714-1.607-2.672-2.523s-1.912-1.836-2.642-2.552c-0.365-0.358-0.674-0.665-0.9-0.896-0.113-0.115-0.206-0.211-0.274-0.286-0.063-0.068-0.114-0.126-0.139-0.164-0.176-0.253-0.307-0.608-0.318-0.966s0.098-0.729 0.416-0.995c0.113-0.135 0.237-0.271 0.362-0.408 0.055-0.060 0.109-0.12 0.163-0.18 0.182-0.203 0.362-0.413 0.52-0.64l0.008-0.011 0.009-0.009 0.001-0.001c0.001-0.001 0.002-0.002 0.003-0.003s0.002-0.002 0.003-0.003c0.005-0.006 0.012-0.013 0.018-0.023 0.002-0.002 0.003-0.004 0.004-0.006l-2.726-3.867c-0.185 0.212-0.369 0.419-0.552 0.624-0.616 0.692-1.215 1.365-1.769 2.129l-0.002 0.003-0.003 0.003c-0.198 0.241-0.28 0.556-0.275 0.925s0.097 0.78 0.238 1.197c0.281 0.833 0.743 1.659 1.029 2.167 0.095 0.163 0.312 0.437 0.632 0.801 0.318 0.361 0.73 0.803 1.207 1.298 0.954 0.989 2.166 2.185 3.399 3.362s2.485 2.334 3.521 3.245c0.518 0.456 0.981 0.849 1.359 1.152 0.381 0.305 0.668 0.513 0.84 0.604 0.531 0.273 1.397 0.715 2.281 0.984 0.442 0.134 0.882 0.223 1.283 0.228s0.752-0.075 1.028-0.268c0.957-0.685 1.914-1.445 2.874-2.209z"></path>
    </symbol>
    <symbol id="icon_symbol_play" viewBox="0 0 32 32">
      <path d="M10.889 6.286c-0.565-0.363-1.277 0.050-1.277 0.667v18.093c0 0.617 0.713 1.030 1.277 0.667l14.072-9.046c0.492-0.316 0.492-1.018 0-1.334v0l-14.072-9.046c0 0 0 0 0 0zM8.012 6.954c0-1.924 2.148-3.038 3.742-2.013v0l14.072 9.046c0 0 0 0 0 0 1.472 0.946 1.472 3.080 0 4.026l-14.072 9.046c-1.595 1.025-3.742-0.089-3.742-2.013v-18.093z"></path>
    </symbol>
    <symbol id="icon_symbol_scroll" viewBox="0 0 32 32">
      <path d="M8.533 13.618h14.608v14.751h-14.608v-14.751zM10.133 15.218v11.551h11.408v-11.551h-11.408z"></path>
      <path d="M15.56 22.261c0.064 0.064 0.166 0.064 0.23 0l1.035-1.046c0.064-0.064 0.064-0.168 0-0.232s-0.166-0.064-0.23 0l-0.92 0.93-0.92-0.93c-0.064-0.064-0.166-0.064-0.23 0s-0.064 0.168 0 0.232l1.035 1.046zM15.512 3.733v18.411h0.325v-18.411h-0.325z"></path>
    </symbol>
  </defs>
</svg>
