<?xml version="1.0" standalone="no"?>
<!DOCTYPE svg PUBLIC "-//W3C//DTD SVG 20010904//EN"
 "http://www.w3.org/TR/2001/REC-SVG-20010904/DTD/svg10.dtd">
<svg version="1.0" xmlns="http://www.w3.org/2000/svg"
 width="1056.000000pt" height="1056.000000pt" viewBox="0 0 1056.000000 1056.000000"
 preserveAspectRatio="xMidYMid meet">
<metadata>
Created by potrace 1.11, written by Peter Selinger 2001-2013
</metadata>
<g transform="translate(0.000000,1056.000000) scale(0.100000,-0.100000)"
fill="#000000" stroke="none">
<path d="M5055 10470 c-82 -6 -108 -19 -132 -63 -20 -37 -19 -23 -9 -967 12
-1073 17 -1362 32 -1690 3 -80 7 -183 9 -230 2 -47 4 -85 5 -85 1 0 3 -38 5
-83 15 -332 60 -521 158 -659 31 -44 37 -44 66 6 72 127 129 289 136 391 4 53
9 159 20 435 17 415 27 882 29 1372 0 222 5 403 9 403 5 0 5 5 2 10 -9 15 -10
104 -1 118 4 7 2 12 -5 12 -9 0 -9 3 0 14 8 10 9 16 1 21 -6 4 -7 13 -1 23 4
9 7 26 5 36 -3 23 -6 107 -4 121 2 15 2 119 0 130 -1 6 -1 12 0 15 6 17 5 52
-2 56 -4 3 -6 10 -2 15 7 12 8 228 1 235 -3 4 -2 16 3 28 4 13 4 29 -1 39 -6
11 -6 17 0 17 5 0 7 20 5 45 -2 24 -6 70 -8 103 -8 132 -55 151 -321 132z"/>
<path d="M3945 9592 c-38 -4 -83 -55 -92 -102 -7 -38 -7 -120 2 -395 3 -99 8
-475 10 -835 3 -360 7 -747 10 -860 4 -193 6 -226 19 -325 3 -22 8 -62 12 -90
3 -27 8 -59 11 -70 4 -19 6 -32 18 -92 12 -60 16 -77 50 -192 32 -111 120
-349 134 -361 3 -3 8 -14 9 -25 2 -11 7 -22 11 -25 4 -3 17 -25 30 -50 53
-106 64 -125 72 -128 5 -2 9 -8 9 -14 0 -9 116 -187 129 -198 3 -3 26 -32 51
-65 25 -33 50 -65 55 -71 6 -6 37 -42 70 -79 33 -38 76 -85 95 -105 19 -20 52
-57 74 -81 34 -39 80 -90 236 -259 23 -25 65 -71 93 -104 29 -32 68 -75 87
-96 52 -55 111 -122 150 -170 19 -23 40 -48 45 -54 41 -44 176 -234 237 -334
116 -190 238 -486 273 -662 2 -8 8 -33 14 -55 10 -39 16 -74 27 -160 2 -22 9
-62 14 -90 4 -27 9 -324 10 -660 2 -563 6 -925 13 -1018 1 -20 -1 -37 -6 -37
-4 0 -5 -6 -1 -12 5 -7 9 -67 11 -133 10 -490 11 -499 44 -546 22 -31 94 -50
147 -39 20 5 78 8 127 9 122 0 159 16 181 81 11 32 12 290 1 290 -4 0 -3 8 2
19 6 10 7 21 4 25 -4 4 -8 39 -9 79 -1 40 -5 178 -9 307 -8 225 -10 622 -5
1210 3 317 -1 383 -36 590 -22 130 -30 171 -60 285 -3 11 -7 27 -9 35 -2 8 -4
16 -5 18 -2 1 -4 7 -5 12 -1 6 -3 11 -4 13 -2 1 -4 12 -6 23 -3 12 -10 34 -16
50 -7 16 -13 36 -15 45 -7 35 -97 248 -149 350 -81 162 -172 313 -278 462 -35
50 -171 221 -192 243 -5 6 -36 39 -67 75 -31 35 -117 126 -191 202 -74 75
-133 137 -131 137 2 0 -11 15 -29 34 -40 42 -131 146 -160 182 -12 15 -32 39
-45 53 -14 14 -41 46 -61 71 -20 25 -51 61 -68 80 -18 19 -33 40 -33 47 0 6
-3 13 -8 15 -12 5 -72 85 -72 96 0 6 -3 12 -7 14 -9 3 -59 77 -84 123 -90 166
-176 355 -185 408 -1 4 -3 9 -4 12 -1 3 -3 8 -4 13 -1 4 -7 23 -14 43 -7 20
-14 45 -17 55 -2 10 -13 57 -24 104 -11 47 -22 103 -25 125 -4 22 -8 51 -10
65 -29 183 -44 795 -46 1837 -1 579 -2 592 -61 627 -25 15 -56 19 -164 21 -73
1 -136 4 -141 6 -5 3 -22 3 -39 1z"/>
<path d="M6001 9553 c-32 -15 -67 -54 -77 -84 -4 -13 -9 -330 -10 -704 -2
-374 -5 -723 -7 -775 -11 -230 -19 -468 -23 -625 -5 -213 -15 -377 -29 -445
-3 -14 -8 -41 -11 -60 -8 -49 -44 -192 -52 -205 -4 -5 -7 -12 -7 -15 -1 -10
-39 -105 -46 -115 -4 -5 -21 -37 -39 -70 -18 -33 -35 -62 -39 -65 -4 -3 -21
-27 -37 -55 -79 -131 -85 -239 -20 -350 55 -95 178 -195 239 -195 39 0 72 40
173 207 52 87 99 165 105 173 5 8 17 31 27 50 10 19 29 55 42 80 13 25 25 50
26 55 1 6 17 44 34 84 31 73 73 219 84 297 4 22 9 51 11 64 8 39 19 112 29
199 3 24 8 60 10 80 3 20 8 68 12 106 3 39 8 73 11 78 2 4 -2 7 -9 7 -8 0 -9
3 -3 8 14 10 13 2 31 342 4 79 15 531 14 605 0 6 -1 110 -2 233 -2 143 1 222
7 222 7 0 7 3 0 8 -5 4 -11 52 -12 107 -3 194 -7 270 -15 288 -6 11 -5 17 2
17 6 0 9 4 6 9 -3 4 -8 33 -12 62 -3 30 -8 65 -10 79 -3 14 -8 73 -13 131 -8
117 -22 152 -69 171 -37 15 -292 16 -321 1z"/>
<path d="M1017 5574 c-1 -1 -32 -4 -69 -6 -62 -5 -80 -12 -116 -45 -23 -22
-27 -54 -27 -214 0 -155 0 -156 28 -193 53 -69 -47 -64 1442 -65 945 -1 1362
2 1389 10 38 10 118 56 124 72 2 4 9 7 15 7 19 0 105 103 117 141 12 35 11 40
-20 84 -30 43 -92 109 -136 145 -16 13 -77 42 -94 46 -3 0 -18 4 -34 9 -23 6
-2612 15 -2619 9z"/>
<path d="M6637 5573 c-1 0 -19 -4 -39 -7 -56 -9 -143 -54 -183 -95 -51 -52
-67 -88 -71 -157 -3 -52 1 -66 24 -100 41 -61 79 -93 135 -115 15 -6 27 -14
27 -18 0 -27 150 -31 1255 -35 627 -3 1203 -8 1280 -11 324 -16 364 -11 404
56 16 27 18 50 16 192 -3 216 -10 239 -83 274 -30 15 -167 16 -1399 17 -750 1
-1365 0 -1366 -1z"/>
<path d="M4388 4808 c-17 -14 -78 -102 -78 -113 0 -4 -16 -30 -35 -59 -19 -29
-35 -58 -35 -65 0 -6 -4 -11 -9 -11 -5 0 -11 -8 -15 -17 -3 -10 -15 -34 -27
-53 -12 -19 -40 -69 -62 -110 -22 -41 -44 -81 -49 -87 -6 -7 -7 -13 -4 -13 4
0 0 -12 -8 -27 -20 -35 -67 -163 -60 -163 2 0 0 -9 -6 -20 -6 -11 -13 -33 -15
-48 -6 -41 -14 -80 -30 -154 -8 -37 -17 -84 -20 -105 -3 -21 -7 -47 -9 -58 -3
-17 -13 -98 -21 -175 -2 -14 -4 -25 -5 -25 -1 0 -3 -22 -4 -50 -2 -27 -7 -86
-11 -130 -9 -105 -13 -189 -20 -424 -3 -107 -7 -196 -10 -199 -2 -3 0 -13 6
-23 5 -11 6 -19 2 -19 -14 0 -21 -835 -10 -1090 17 -387 22 -441 41 -478 22
-43 74 -64 144 -58 31 3 95 7 142 9 47 3 97 10 113 17 30 15 60 58 72 105 4
17 9 239 10 495 2 256 6 584 10 730 4 146 8 307 9 357 1 51 3 93 6 93 3 0 5
51 6 113 1 151 13 493 18 537 3 19 8 62 11 95 12 95 15 115 37 214 6 31 11 59
10 64 -1 4 3 7 9 7 5 0 8 4 5 9 -5 7 17 83 42 146 13 32 146 299 157 314 16
23 35 84 41 133 8 69 -20 122 -117 223 -106 110 -186 149 -231 113z"/>
<path d="M5140 3953 c-86 -101 -161 -304 -185 -498 -4 -34 -15 -306 -21 -495
-7 -257 -15 -897 -20 -1570 -3 -382 -6 -776 -8 -874 -3 -198 2 -245 31 -285
38 -50 74 -60 228 -58 159 2 186 12 221 84 18 36 19 77 19 820 0 429 -3 779
-7 777 -4 -3 -4 5 1 18 4 12 5 37 1 55 -6 22 -4 33 4 33 7 0 7 3 1 8 -6 4 -10
80 -11 187 -2 297 -24 1000 -38 1225 -4 58 -12 125 -23 175 -3 17 -7 39 -9 50
-6 45 -35 138 -54 175 -11 22 -18 40 -14 40 4 0 0 7 -7 16 -13 16 -32 47 -46
74 -4 8 -16 25 -28 38 -19 21 -21 21 -35 5z"/>
</g>
</svg>
