<svg width="21" height="25" viewBox="0 0 21 25" fill="none" xmlns="http://www.w3.org/2000/svg">
<path d="M12.316 19.9109C12.316 19.2748 12.316 18.5751 12.316 17.9389C12.3767 16.285 11.8307 14.9491 10.7993 13.7405C10.1926 13.0407 9.52519 12.341 8.91849 11.6412C7.8871 10.4326 7.40173 8.96948 7.40173 7.31553C7.40173 5.7252 7.40173 4.13487 7.34106 2.60815C7.34106 2.16286 7.52307 2.09925 7.82643 2.16286C8.12978 2.22647 8.55447 1.97202 8.55447 2.60815C8.55447 4.2621 8.55447 5.97965 8.61514 7.6336C8.67581 8.84225 9.03983 9.86006 9.76787 10.8143C10.1319 11.2596 10.5566 11.7685 10.9813 12.2137C12.68 13.8677 13.6508 15.8397 13.5294 18.3206C13.4688 19.7201 13.5294 21.1196 13.5901 22.5191C13.5901 23.028 13.3474 22.9644 13.0441 22.9644C12.7407 22.9644 12.3767 23.1552 12.3767 22.5191" fill="#00A6D7"/>
<path d="M13.59 4.89827C13.59 6.29776 13.59 7.63364 13.3473 9.03313C13.226 9.8601 12.8013 10.4962 12.3766 11.196C12.1946 11.4504 12.1339 11.3868 11.8913 11.2596C11.4666 10.8779 11.2846 10.4962 11.7092 9.92371C12.1946 9.22397 12.2553 8.33338 12.2553 7.4428C12.316 5.85246 12.3766 4.26213 12.3159 2.73542C12.3159 2.09928 12.68 2.22651 12.9833 2.22651C13.3473 2.1629 13.5294 2.29012 13.4687 2.73542C13.59 3.37155 13.59 4.13491 13.59 4.89827Z" fill="#00A6D7"/>
<path d="M7.34106 20.0382C7.40173 18.6387 7.34106 17.2392 7.64442 15.8397C7.76576 15.0764 8.19045 14.5038 8.55447 13.8677C8.67581 13.6769 8.73648 13.6769 8.97916 13.8041C9.58586 14.3766 9.64653 14.4402 9.22184 15.2036C8.61514 16.285 8.73648 17.43 8.67581 18.5751C8.61514 19.8473 8.61514 21.1196 8.61514 22.3283C8.61514 23.028 8.25112 22.8372 7.8871 22.9008C7.40173 22.9644 7.40173 22.7099 7.40173 22.3283C7.34106 21.5649 7.34106 20.8015 7.34106 20.0382Z" fill="#00A6D7"/>
<path d="M17.3516 13.168C16.3809 13.168 15.4102 13.168 14.4395 13.168C14.3181 13.168 14.1968 13.168 14.0755 13.168C13.7114 13.1044 13.3474 12.8499 13.3474 12.5319C13.3474 12.2138 13.7114 11.8957 14.1361 11.8957C15.1068 11.8957 16.0169 11.8957 16.9876 11.8957C18.1404 11.8957 19.3538 11.8957 20.5065 11.8957C20.9919 11.8957 20.9312 12.2138 20.9312 12.5319C20.9312 12.8499 21.0525 13.2316 20.5065 13.2316C19.4751 13.168 18.4437 13.168 17.3516 13.168Z" fill="#00A6D7"/>
<path d="M3.57959 13.168C2.5482 13.168 1.51681 13.168 0.485414 13.168C-0.0606177 13.168 5.24996e-05 12.7863 5.24996e-05 12.4682C5.24996e-05 12.0866 5.25061e-05 11.8957 0.485414 11.8957C2.5482 11.8957 4.61099 11.8957 6.67377 11.8957C7.09847 11.8957 7.34115 12.2138 7.52316 12.4682C7.6445 12.6591 7.09847 13.168 6.73444 13.168C5.70305 13.168 4.61099 13.168 3.57959 13.168Z" fill="#00A6D7"/>
<path d="M10.4961 9.28757C10.1928 8.9059 10.1321 8.52422 10.0714 8.07892C9.8894 5.53439 9.95007 2.98986 9.8894 0.445335C9.8894 -0.127184 10.2534 0.0636553 10.4961 4.20897e-05C10.7995 4.20897e-05 11.0421 -0.0635712 11.0421 0.445335C11.0421 2.98986 11.0421 5.47078 10.9208 8.01531C10.9208 8.39699 10.7995 8.84228 10.4961 9.28757Z" fill="#00A6D7"/>
<path d="M10.4961 15.7761C10.8601 16.2214 10.9208 16.6667 10.9815 17.1756C11.1028 19.5929 11.1028 22.0102 11.1028 24.4911C11.1028 25 10.8601 25 10.4961 25C10.1321 25 9.8894 25 9.8894 24.4911C9.95007 22.0102 9.8894 19.5293 10.0107 17.0484C10.0714 16.6031 10.1928 16.1578 10.4961 15.7761Z" fill="#00A6D7"/>
</svg>
