<svg xmlns="http://www.w3.org/2000/svg" xmlns:xlink="http://www.w3.org/1999/xlink" width="21" version="1.1" viewBox="0 0 59.53 70.16" xml:space="preserve">
  <defs>
    <circle id="id1" cx="29.8" cy="35.32" r="29.07"/>
  </defs>
  <clipPath id="id2">
    <use overflow="visible" xlink:href="#id1"/>
  </clipPath>
  <g fill="#fff" clip-path="url(#id2)">
    <path d="M35.62 57.73c0-1.99-.06-3.98.01-5.97.18-4.91-1.46-9.08-4.86-12.62-2.01-2.08-3.96-4.22-5.89-6.38-3.34-3.72-4.8-8.13-4.84-13.09-.03-4.77-.06-9.53-.22-14.29C19.77 4 20.4 3.87 21.41 4c.96.13 2.32-.67 2.3 1.43-.05 5.06.01 10.13.24 15.2.17 3.69 1.39 6.8 3.71 9.56 1.2 1.43 2.42 2.87 3.78 4.14 5.36 4.97 8.37 10.9 8.11 18.37-.14 4.22-.03 8.45.1 12.67.05 1.51-.82 1.34-1.72 1.28-.91-.05-2.14.49-2.07-1.32" />
    <path d="M39.66 12.23c-.05 4.16-.04 8.32-.73 12.44-.41 2.43-1.65 4.48-3.01 6.48-.52.77-.82.66-1.49.1-1.44-1.21-1.91-2.25-.59-3.98 1.63-2.14 1.71-4.83 1.78-7.43.13-4.76.32-9.53.27-14.29-.02-1.98 1.13-1.46 2.2-1.57 1.23-.13 1.7.22 1.62 1.56-.14 2.22-.05 4.46-.05 6.69zM19.89 57.98c.17-4.22-.02-8.45.87-12.61.47-2.22 1.66-4.11 2.9-5.97.38-.57.66-.66 1.25-.16 1.95 1.65 2.06 1.88.7 4.15-1.91 3.19-1.6 6.75-1.78 10.21-.19 3.79-.25 7.61-.11 11.4.07 2.04-1.14 1.54-2.27 1.67-1.54.18-1.61-.64-1.58-1.82.07-2.28.02-4.57.02-6.87zM42.34 37.25c-.36 0-.73.02-1.08-.01-1.22-.12-2.32-1.04-2.28-1.93.05-.96 1.07-1.94 2.45-1.93 3.01.02 6.02.01 9.03.01 3.73 0 7.47.06 11.2-.03 1.56-.04 1.43.87 1.39 1.86-.03.96.35 2.1-1.38 2.06-3.37-.09-16.26-.03-19.33-.03zM7.9 37.21c-3.25 0-6.5-.08-9.75.03-1.8.06-1.47-1.09-1.53-2.14-.07-1.11.09-1.76 1.52-1.74 6.56.08 13.12.07 19.69 0 1.41-.01 2.06.9 2.73 1.76.47.6-1.3 2.11-2.54 2.12-3.37.03-6.74.01-10.11.01-.01-.02-.01-.03-.01-.04zM29.76 25.5c-.9-1.13-1.23-2.31-1.32-3.57-.52-7.7-.37-15.41-.48-23.12-.02-1.68 1.07-1.21 1.94-1.26.92-.05 1.75-.17 1.74 1.29-.02 7.59-.09 15.18-.47 22.76-.06 1.36-.34 2.7-1.41 3.9zM29.75 45.08c1.12 1.3 1.37 2.76 1.44 4.26.35 7.34.4 14.69.46 22.04.01 1.54-.7 1.59-1.86 1.59-1.16 0-1.87-.04-1.84-1.59.14-7.47 0-14.94.47-22.4.09-1.38.39-2.68 1.33-3.9z" />
  </g>
</svg>
