<svg xmlns="http://www.w3.org/2000/svg" width="28" height="33" fill="none"><path fill="#fff" d="M15.97 25.658v-2.541c.08-2.131-.629-3.852-1.966-5.41-.787-.901-1.652-1.803-2.438-2.704-1.338-1.558-1.967-3.443-1.967-5.574 0-2.049 0-4.098-.078-6.065 0-.574.235-.656.629-.574.393.082.944-.246.944.574 0 2.13 0 4.344.078 6.475.079 1.557.551 2.869 1.495 4.098.472.574 1.023 1.23 1.573 1.803 2.203 2.131 3.461 4.672 3.304 7.869-.079 1.803 0 3.606.078 5.41 0 .655-.314.573-.707.573-.394 0-.866.246-.866-.574"/><path fill="#fff" d="M17.622 6.315c0 1.803 0 3.524-.314 5.327-.157 1.066-.708 1.885-1.259 2.787-.236.328-.314.246-.629.082-.55-.492-.787-.984-.236-1.721.63-.902.708-2.05.708-3.197.079-2.049.157-4.098.079-6.065 0-.82.471-.656.865-.656.472-.082.708.082.63.656.156.82.156 1.803.156 2.787zM9.52 25.822c.08-1.803 0-3.607.394-5.41.157-.983.708-1.721 1.18-2.54.157-.247.236-.247.55-.083.787.738.866.82.315 1.803-.787 1.394-.63 2.87-.708 4.345-.079 1.639-.079 3.278-.079 4.835 0 .902-.472.656-.944.738-.629.082-.629-.246-.629-.738-.078-.983-.078-1.967-.078-2.95zM22.5 16.97H18.25c-.471-.082-.943-.41-.943-.82s.472-.82 1.022-.82h8.26c.629 0 .55.41.55.82s.157.902-.55.902c-1.338-.082-2.675-.082-4.09-.082zM4.644 16.97H.632c-.708 0-.63-.492-.63-.902 0-.492 0-.738.63-.738h8.023c.55 0 .865.41 1.101.738.158.246-.55.902-1.022.902h-4.09zM13.61 11.97c-.393-.492-.471-.984-.55-1.557-.236-3.279-.157-6.557-.236-9.836 0-.738.472-.492.787-.574.393 0 .708-.082.708.574 0 3.279 0 6.475-.158 9.754 0 .491-.157 1.065-.55 1.639zM13.61 20.33c.473.574.551 1.148.63 1.803.157 3.115.157 6.23.157 9.426 0 .656-.314.656-.786.656-.472 0-.787 0-.787-.656.079-3.197 0-6.393.158-9.59.078-.573.236-1.147.629-1.639z"/></svg>